ply
format ascii 1.0
element vertex 288
property float x
property float y
property float z
property float u
property float v
element face 314
property list uchar int vertex_indices
end_header
-90.364 -312.636 0 147.636 8.36396
-98.7279 -302.272 0 139.272 18.7279
-98 -287.799 0 140 33.201
-95 -274.042 0 143 46.9584
-82.1127 -271 0 155.887 50
-77 -282.645 0 161 38.3553
-71 -283.426 0 167 37.5736
-64.2305 -271.23 0 173.77 49.7695
-58.5736 -258.574 0 179.426 62.4264
-46.2965 -264 0 191.703 57
-40 -254.368 0 198 66.6324
-35 -241.439 0 203 79.5613
-43.468 -232.532 0 194.532 88.468
-53.2462 -222.754 0 184.754 98.2462
-64.0243 -213.976 0 173.976 107.024
-71 -201.865 0 167 119.135
-64.338 -191.662 0 173.662 129.338
-64.4193 -179.419 0 173.581 141.581
-57.3483 -167.348 0 180.652 153.652
-50 -155.392 0 188 165.608
-39.9133 -146.913 0 198.087 174.087
-32.1351 -135.135 0 205.865 185.865
-44.4004 -135.4 0 193.6 185.6
-57.6431 -139.643 0 180.357 181.357
-71.2526 -143 0 166.747 178
-85.007 -145.993 0 152.993 175.007
-97.6639 -149.664 0 140.336 171.336
-104.906 -159.906 0 133.094 161.094
-109 -173.211 0 129 147.789
-113.392 -186.392 0 124.608 134.608
-119 -199.069 0 119 121.931
-123.998 -211.998 0 114.002 109.002
-128.948 -224.948 0 109.052 96.0519
-136.726 -236.726 0 101.274 84.2737
-144 -248.714 0 94 72.2865
-148 -262.057 0 90 58.9432
-156.157 -269 0 81.8428 52
-160 -258.671 0 78 62.3289
-161 -248.328 0 77 72.6721
-160.718 -242.282 0 77.282 78.718
-173.668 -244.668 0 64.3323 76.3323
-181 -252.873 0 57 68.1266
-192 -254.198 0 46 66.8023
-187 -241.269 0 51 79.7314
-180.24 -230.24 0 57.7599 90.7599
-169.462 -221.462 0 68.5381 99.5381
-156.31 -217 0 81.6901 104
-151.391 -205.391 0 86.6093 115.609
-149 -191.381 0 89 129.619
-147.148 -177.148 0 90.8521 143.852
-146 -162.623 0 92 158.377
-142.198 -149.198 0 95.8019 171.802
-139.37 -135.37 0 98.6304 185.63
-135.127 -122.127 0 102.873 198.873
-129 -109.665 0 109 211.335
-118.15 -102 0 119.85 219
-111.635 -104 0 126.365 217
-98.7059 -99 0 139.294 222
-95 -89.3626 0 143 231.637
-82.135 -88.135 0 155.865 232.865
-70 -82.262 0 168 238.738
-67 -68.5049 0 171 252.495
-67 -53.5049 0 171 267.495
-64 -39.7472 0 174 281.253
-67 -26.8182 0 171 294.182
-71.3713 -13.6287 0 166.629 307.371
-80.3211 -6.67889 0 157.679 314.321
-90.3922 2.39224 0 147.608 323.392
-93.6349 14.6349 0 144.365 335.635
-103.12 25.1203 0 134.88 346.12
-110.899 36.8985 0 127.101 357.899
-118 48.9572 0 120 369.957
-125.748 60.748 0 112.252 381.748
-134.233 72.2334 0 103.767 393.233
-143.426 83.4258 0 94.5742 404.426
-147.712 92 0 90.2883 413
-134.368 96 0 103.632 417
-123.396 102.396 0 114.604 423.396
-127.639 115.639 0 110.361 436.639
-130 129.661 0 108 450.661
-132 143.833 0 106 464.833
-139.953 154.953 0 98.0469 475.953
-150.438 164.438 0 87.5616 485.438
-162.217 172.217 0 75.7834 493.217
-172.702 181.702 0 65.298 502.702
-182.894 191.894 0 55.1057 512.894
-190.673 203.673 0 47.3275 524.673
-198.037 215.037 0 39.9634 536.037
-205.108 227.108 0 32.8922 548.108
-213.839 238 0 24.1611 559
-220.957 249.957 0 17.0429 570.957
-227.454 262 0 10.5458 583
-233 274.383 0 5 595.383
-237 287.727 0 1 608.727
-226.759 286 0 11.2413 607
-214.172 287.828 0 23.8276 608.828
-202.687 296.313 0 35.3131 617.313
-191.495 305.505 0 46.5054 626.505
-180.009 313.991 0 57.9907 634.991
-167.084 319 0 70.9161 640
-168.89 313.11 0 69.1096 634.11
-175.962 301.038 0 62.0385 622.038
-181.618 288.382 0 56.3815 609.382
-187 275.61 0 51 596.61
-190.482 264.482 0 47.5181 585.482
-179.582 254.582 0 58.4175 575.582
-168.683 244.683 0 69.3169 565.683
-157.49 235.49 0 80.5095 556.49
-146.591 225.591 0 91.4089 546.591
-136.106 216.106 0 101.894 537.106
-125.327 207.327 0 112.673 528.327
-113.842 198.842 0 124.158 519.842
-101.478 192.478 0 136.522 513.478
-88.7471 187 0 149.253 508
-79.0428 177.043 0 158.957 498.043
-71.9717 164.972 0 166.028 485.972
-63.4863 153.486 0 174.514 474.486
-55 142.002 0 183 463.002
-47 130.315 0 191 451.315
-38.7376 118.738 0 199.262 439.738
-27.6666 117.333 0 210.333 438.333
-17.0598 127.94 0 220.94 448.94
-5.8125 137 0 232.188 458
5.61792 145.618 0 243.618 466.618
17.3961 153.396 0 255.396 474.396
29.1743 161.174 0 267.174 482.174
38.5385 170.538 0 276.538 491.538
44 183.276 0 282 504.276
48 196.62 0 286 517.62
51.9738 209.974 0 289.974 530.974
57 222.892 0 295 543.892
64 234.993 0 302 555.993
71.7729 246.773 0 309.773 567.773
80.2582 258.258 0 318.258 579.258
89.4507 269.451 0 327.451 590.451
97.936 280.936 0 335.936 601.936
107.835 291.835 0 345.835 612.835
116.282 302 0 354.282 623
129.149 306.851 0 367.149 627.851
126 295.86 0 364 616.86
135.654 287 0 373.654 608
149.825 285 0 387.825 606
162.34 279 0 400.34 600
172 269.56 0 410 590.56
158.802 266 0 396.802 587
144.631 266 0 382.631 587
130.874 263 0 368.874 584
120.254 257.254 0 358.254 578.254
116 244.017 0 354 565.017
113 230.26 0 351 551.26
108.234 217.234 0 346.234 538.234
103 204.403 0 341 525.403
99 191.06 0 337 512.06
94.7999 177.8 0 332.8 498.8
91.2646 164.265 0 329.265 485.265
93 150.203 0 331 471.203
97.6848 138.315 0 335.685 459.315
91.9011 128.901 0 329.901 449.901
84.1233 117.123 0 322.123 438.123
72.9304 107.93 0 310.93 428.93
69.7847 99 0 307.785 420
67.7886 90.7886 0 305.789 411.789
59.3037 79.3037 0 297.304 400.304
52.2324 67.2324 0 290.232 388.232
44.4541 55.4541 0 282.454 376.454
35.2617 44.2617 0 273.262 365.262
26.0691 33.0691 0 264.069 354.069
21.1196 20.1196 0 259.12 341.12
19 9.65479 0 257 330.655
24 -3.27368 0 262 317.726
27 -17.0306 0 265 303.969
30 -30.788 0 268 290.212
34 -44.1305 0 272 276.87
42.2312 -55 0 280.231 266
55.1597 -60 0 293.16 261
70.113 -59.887 0 308.113 261.113
83 -59.917 0 321 261.083
90.1837 -70.1837 0 328.184 250.816
104.017 -69 0 342.017 252
119.018 -69 0 357.018 252
133.189 -71 0 371.189 250
147.774 -72 0 385.774 249
153 -63.0544 0 391 257.946
152 -48.4702 0 390 272.53
152 -33.4697 0 390 287.53
152 -18.4692 0 390 302.531
151 -3.88232 0 389 317.118
151 11.1177 0 389 332.118
150 25.7034 0 388 346.703
150 40.7002 0 388 361.7
151 55.2883 0 389 376.288
157 56.5405 0 395 377.541
154 45.0261 0 392 366.026
155.396 30.6044 0 393.396 351.604
161 17.926 0 399 338.926
169.537 6.46289 0 407.537 327.463
181.032 -2 0 419.032 319
193.133 -9 0 431.133 312
205.457 -15.4574 0 443.457 305.543
216.919 -24 0 454.919 297
226 -34.0192 0 464 286.981
231 -46.9481 0 469 274.052
233.084 -61.0845 0 471.084 259.916
234 -75.7043 0 472 245.296
233.206 -90.2056 0 471.206 230.794
234.552 -103.448 0 472.552 217.552
236 -117.391 0 474 203.609
234 -130.148 0 472 190.852
234 -145.148 0 472 175.852
231.774 -159.226 0 469.774 161.774
225.41 -171.59 0 463.41 149.41
213.925 -180.075 0 451.925 140.925
201.794 -187 0 439.794 134
189.693 -194 0 427.693 127
178.712 -202.288 0 416.712 118.712
170.227 -213.773 0 408.227 107.227
165.985 -227.015 0 403.985 93.9846
165 -241.607 0 403 79.3931
167 -252.708 0 405 68.2922
162.964 -259.964 0 400.964 61.0356
158 -247.02 0 396 73.98
158 -232.021 0 396 88.9795
158 -217.021 0 396 103.979
157 -202.434 0 395 118.566
157 -187.434 0 395 133.566
156 -172.848 0 394 148.152
156 -157.848 0 394 163.152
155 -143.264 0 393 177.736
155 -128.264 0 393 192.736
154 -113.678 0 392 207.322
147.092 -105 0 385.092 216
132.508 -106 0 370.508 215
117.921 -107 0 355.921 214
103.335 -108 0 341.335 213
95.8208 -115 0 333.821 206
81.2352 -116 0 319.235 205
69 -121.694 0 307 199.306
62.1455 -133.854 0 300.146 187.146
56.9258 -145.926 0 294.926 175.074
62.0046 -154 0 300.005 167
49.6396 -154.36 0 287.64 166.64
46 -167.024 0 284 153.976
39 -179.125 0 277 141.875
32 -190.639 0 270 130.361
27.0183 -201 0 265.018 120
21.918 -213 0 259.918 108
13.2852 -222.715 0 251.285 98.2852
5 -234.283 0 243 86.717
-4.39246 -245.392 0 233.608 75.6075
-18.3121 -248 0 219.688 73
-30.1703 -250.17 0 207.83 70.8297
-37 -262.341 0 201 58.6587
-32.9805 -272.02 0 205.02 48.9805
-28.0311 -282.969 0 209.969 38.0311
-28 -289.713 0 210 31.2869
-33.4539 -298.454 0 204.546 22.5461
-41.6962 -307.696 0 196.304 13.3038
-51.9387 -312.939 0 186.061 8.06128
-64.181 -318.181 0 173.819 2.81897
-79 -320 0 159 1
-76.3298 -300.916 0 161.67 20.0836
-43.0246 -286.41 0 194.975 34.5897
41.1091 101.622 0 279.109 422.622
-38.6345 75.2067 0 199.366 396.207
23.2509 -124.2 0 261.251 196.8
175.984 -89.09 0 413.984 231.91
-20.4241 23.0871 0 217.576 344.087
-18.6565 -217.421 0 219.344 103.579
-39.029 -100.077 0 198.971 220.923
58.3909 141.322 0 296.391 462.322
20.8365 -152.937 0 258.836 168.063
198.975 -118.122 0 436.975 202.878
-54.7503 17.0131 0 183.25 338.013
-21.0903 -22.9781 0 216.91 298.022
-0.416443 -196.423 0 237.584 124.577
-24.6822 -175.272 0 213.318 145.728
-88.4435 120.896 0 149.556 441.896
-113.012 165.817 0 124.988 486.817
62.0867 -90.8454 0 300.087 230.155
190.822 -153.691 0 428.822 167.309
184.29 -40.97 0 422.29 280.03
8.7113 107.458 0 246.711 428.458
24.3301 77.2014 0 262.33 398.201
-78.9054 63.8601 0 159.095 384.86
202.214 -70.3562 0 440.214 250.644
1.47539 -77.312 0 239.475 243.688
-33.8861 -53.5198 0 204.114 267.48
2.90466 -46.1818 0 240.905 274.818
3 43 42 41
3 39 38 34
3 44 43 40
3 40 39 44
3 43 41 40
3 45 44 39
3 38 37 34
3 5 3 2
3 1 260 2
3 34 37 35
3 39 33 46
3 34 33 39
3 35 37 36
3 32 46 33
3 45 39 46
3 48 30 49
3 32 47 46
3 51 50 28
3 49 28 50
3 51 27 52
3 48 47 31
3 29 49 30
3 28 49 29
3 28 27 51
3 56 54 53
3 26 53 52
3 27 26 52
3 26 56 53
3 30 48 31
3 31 47 32
3 260 6 5
3 261 6 257
3 260 258 257
3 2 260 5
3 4 3 5
3 9 8 7
3 6 260 257
3 255 261 256
3 261 255 254
3 261 254 253
3 251 9 252
3 7 261 9
3 253 252 261
3 261 257 256
3 10 9 251
3 16 275 17
3 14 16 15
3 275 16 267
3 57 25 24
3 23 59 24
3 16 14 13
3 267 11 249
3 250 11 10
3 10 251 250
3 12 11 267
3 13 12 267
3 275 18 17
3 275 267 274
3 23 22 268
3 19 275 20
3 249 11 250
3 26 25 56
3 60 268 61
3 0 260 1
3 22 21 268
3 86 107 87
3 85 108 86
3 84 108 85
3 105 89 88
3 87 106 88
3 107 106 87
3 105 88 106
3 84 83 109
3 75 74 76
3 82 81 277
3 74 73 76
3 86 108 107
3 83 110 109
3 108 84 109
3 110 83 82
3 94 92 95
3 104 95 91
3 92 91 95
3 92 94 93
3 102 97 96
3 96 95 103
3 90 104 91
3 102 96 103
3 90 89 104
3 101 97 102
3 98 101 100
3 98 97 101
3 100 99 98
3 258 260 259
3 103 95 104
3 89 105 104
3 0 259 260
3 56 55 54
3 58 57 59
3 56 25 57
3 283 69 68
3 67 66 272
3 68 272 283
3 59 57 24
3 268 286 61
3 59 268 60
3 64 273 65
3 64 63 273
3 168 167 266
3 286 268 285
3 268 59 23
3 263 119 276
3 73 72 77
3 276 78 77
3 72 71 283
3 82 111 110
3 276 79 78
3 80 79 276
3 80 277 81
3 283 71 70
3 73 77 76
3 116 115 276
3 276 117 116
3 115 277 276
3 111 82 277
3 112 111 277
3 114 113 277
3 277 115 114
3 276 119 118
3 70 69 283
3 266 272 273
3 65 272 66
3 248 247 267
3 267 247 246
3 243 270 274
3 274 245 244
3 242 270 243
3 267 246 274
3 270 241 240
3 270 240 264
3 239 238 240
3 238 237 264
3 241 270 242
3 235 234 233
3 236 235 278
3 264 240 238
3 236 278 264
3 175 177 176
3 174 278 175
3 177 233 178
3 278 177 175
3 173 285 278
3 172 287 285
3 63 286 273
3 235 233 177
3 180 232 231
3 231 230 180
3 181 180 230
3 178 232 179
3 232 180 179
3 230 229 265
3 232 178 233
3 287 170 273
3 221 220 217
3 220 218 217
3 218 220 219
3 222 221 216
3 224 223 214
3 222 215 223
3 213 225 224
3 221 217 216
3 215 214 223
3 216 215 222
3 225 213 279
3 211 279 212
3 279 213 212
3 214 213 224
3 279 210 209
3 279 227 226
3 207 206 271
3 182 181 265
3 183 280 184
3 265 280 182
3 200 199 280
3 280 199 198
3 226 225 279
3 230 265 181
3 207 271 208
3 122 281 123
3 271 205 204
3 205 271 206
3 280 284 200
3 204 284 271
3 201 200 284
3 203 202 284
3 208 279 209
3 271 279 208
3 281 122 121
3 280 198 197
3 166 282 266
3 266 273 168
3 266 167 166
3 124 281 262
3 163 282 164
3 263 120 119
3 282 262 281
3 273 169 168
3 262 282 162
3 161 160 262
3 281 121 120
3 262 160 159
3 158 269 159
3 269 262 159
3 162 282 163
3 155 269 157
3 124 123 281
3 262 269 124
3 162 161 262
3 126 269 127
3 152 129 128
3 127 153 128
3 269 158 157
3 130 129 151
3 127 154 153
3 154 127 269
3 131 130 151
3 132 131 150
3 133 132 149
3 133 148 134
3 153 152 128
3 154 269 155
3 155 157 156
3 187 194 188
3 186 195 187
3 189 188 193
3 151 129 152
3 192 190 189
3 196 186 185
3 196 195 186
3 185 184 280
3 185 280 196
3 193 192 189
3 193 188 194
3 192 191 190
3 195 194 187
3 196 280 197
3 150 149 132
3 148 133 149
3 134 148 147
3 136 135 147
3 146 136 147
3 136 139 137
3 134 147 135
3 131 151 150
3 146 145 140
3 145 144 141
3 142 144 143
3 139 138 137
3 145 141 140
3 141 144 142
3 136 140 139
3 9 261 252
3 140 136 146
3 6 261 7
3 249 248 267
3 282 166 165
3 236 264 237
3 285 173 172
3 271 229 228
3 284 204 203
3 263 283 272
3 65 273 272
3 245 274 246
3 16 13 267
3 21 264 268
3 278 285 264
3 126 125 269
3 125 124 269
3 264 21 270
3 21 20 275
3 229 271 265
3 279 228 227
3 263 272 266
3 67 272 68
3 286 63 62
3 169 273 170
3 243 274 244
3 270 21 275
3 18 275 19
3 270 275 274
3 283 77 72
3 118 117 276
3 80 276 277
3 113 112 277
3 278 235 177
3 278 174 173
3 279 211 210
3 279 271 228
3 182 280 183
3 284 265 271
3 120 263 281
3 266 282 263
3 263 282 281
3 165 164 282
3 263 276 283
3 283 276 77
3 201 284 202
3 280 265 284
3 172 171 287
3 264 285 268
3 61 286 62
3 287 286 285
3 170 287 171
3 286 287 273
