ply
format ascii 1.0
comment Created by Blender 2.74 (sub 0) - www.blender.org, source file: 'mesh.blend'
element vertex 12
property float x
property float y
property float z
property float nx
property float ny
property float nz
property float s
property float t
element face 10
property list uchar uint vertex_indices
end_header
-0.000000 0.001947 -0.000000 0.000000 0.000000 -1.000000 0.000100 0.000100
-0.000000 0.206075 0.000000 0.000000 0.000000 -1.000000 0.203874 0.000100
1.000000 0.206074 0.000000 0.000000 0.000000 -1.000000 0.203875 0.998367
1.000000 0.001946 -0.000000 0.000000 0.000000 -1.000000 0.000100 0.998367
-0.000000 0.398947 0.000000 0.000000 0.000000 -1.000000 0.396412 0.000100
1.000000 0.398946 0.000000 0.000000 0.000000 -1.000000 0.396412 0.998367
-0.000000 0.607452 0.000000 0.000000 0.000000 -1.000000 0.604556 0.000100
1.000000 0.607451 0.000000 0.000000 0.000000 -1.000000 0.604556 0.998367
-0.000000 0.800053 0.000000 0.000000 0.000000 -1.000000 0.796824 0.000100
1.000000 0.800053 0.000000 0.000000 0.000000 -1.000000 0.796824 0.998367
0.000000 1.003482 0.000000 0.000000 0.000000 -1.000000 0.999900 0.000100
1.000000 1.003482 0.000000 0.000000 0.000000 -1.000000 0.999900 0.998367
3 0 1 2
3 3 0 2
3 1 4 5
3 4 6 7
3 6 8 9
3 8 10 11
3 2 1 5
3 5 4 7
3 7 6 9
3 9 8 11
